<?xml version="1.0" standalone="no"?>
<!DOCTYPE svg PUBLIC "-//W3C//DTD SVG 20010904//EN"
 "http://www.w3.org/TR/2001/REC-SVG-20010904/DTD/svg10.dtd">
<svg version="1.0" xmlns="http://www.w3.org/2000/svg"
 width="180.000000pt" height="180.000000pt" viewBox="0 0 180.000000 180.000000"
 preserveAspectRatio="xMidYMid meet">
<metadata>
Created by potrace 1.14, written by Peter Selinger 2001-2017
</metadata>
<g transform="translate(0.000000,180.000000) scale(0.100000,-0.100000)"
fill="#000000" stroke="none">
<path d="M190 1778 c-71 -27 -142 -99 -169 -173 -20 -53 -21 -72 -20 -707 0
-630 1 -655 20 -706 25 -63 87 -130 155 -163 l49 -24 675 0 c670 0 675 0 721
21 60 28 125 93 153 153 21 46 21 51 21 721 l0 675 -22 48 c-28 60 -84 116
-148 147 l-50 25 -665 2 c-654 2 -666 2 -720 -19z"/>
</g>
</svg>
