<?xml version="1.0" standalone="no"?>
<!DOCTYPE svg PUBLIC "-//W3C//DTD SVG 20010904//EN"
 "http://www.w3.org/TR/2001/REC-SVG-20010904/DTD/svg10.dtd">
<svg version="1.0" xmlns="http://www.w3.org/2000/svg"
 width="1080.000000pt" height="1080.000000pt" viewBox="0 0 1080.000000 1080.000000"
 preserveAspectRatio="xMidYMid meet">
<metadata>
Created by potrace 1.14, written by Peter Selinger 2001-2017
</metadata>
<g transform="translate(0.000000,1080.000000) scale(0.100000,-0.100000)"
fill="#000000" stroke="none">
<path d="M1200 5400 l0 -4200 4200 0 4200 0 0 4200 0 4200 -4200 0 -4200 0 0
-4200z m5600 1400 l0 -1867 923 -1 c507 0 927 -1 933 -1 8 -1 10 -402 10
-1398 l-1 -1398 -3262 -1 c-1795 0 -3264 2 -3265 5 -1 3 -2 633 -3 1399 l-2
1392 31 1 c17 0 436 1 931 2 l900 2 3 466 2 466 -907 1 c-500 0 -920 1 -934 1
l-26 1 2 1393 c1 765 2 1395 3 1398 1 3 1050 6 2332 6 l2330 0 0 -1867z m1866
468 c1 -1270 -1 -1398 -15 -1399 -21 -1 -892 -1 -907 0 -8 1 -10 399 -9 1394
1 765 2 1395 3 1398 1 3 210 6 465 5 l462 -1 1 -1397z"/>
<path d="M3087 7732 c-9 -2 -17 -9 -18 -15 0 -7 -1 -214 -1 -462 l-1 -450 931
-3 c735 -2 932 -5 933 -15 0 -6 1 -636 2 -1399 l2 -1388 -935 0 -935 0 2 -443
c1 -243 2 -453 2 -467 l1 -25 2330 0 c2323 0 2330 0 2331 20 0 11 1 220 1 465
l1 445 -931 3 c-879 2 -932 3 -933 20 0 9 -1 848 -1 1865 l-1 1847 -26 1 c-83
3 -2740 3 -2754 1z"/>
</g>
</svg>
